<?xml version="1.0" encoding="iso-8859-1"?>
<!-- Generator: Adobe Illustrator 17.1.0, SVG Export Plug-In . SVG Version: 6.00 Build 0)  -->
<!DOCTYPE svg PUBLIC "-//W3C//DTD SVG 1.1//EN" "http://www.w3.org/Graphics/SVG/1.1/DTD/svg11.dtd">
<svg version="1.1" id="Capa_1" xmlns="http://www.w3.org/2000/svg" xmlns:xlink="http://www.w3.org/1999/xlink" x="0px" y="0px"
	 viewBox="0 0 487.865 487.865" style="enable-background:new 0 0 487.865 487.865;" xml:space="preserve">
<g>
	<path d="M381.41,236.388h-28.9c-1.797-5.946-4.187-11.71-7.133-17.207l20.439-20.439c0.938-0.938,1.465-2.209,1.465-3.535
		s-0.526-2.598-1.465-3.535l-31.67-31.67c-1.951-1.953-5.119-1.953-7.07,0l-20.416,20.415c-5.506-2.96-11.276-5.358-17.23-7.164
		v-28.845c0-2.762-2.238-5-5-5h-44.787c-2.762,0-5,2.238-5,5v28.796c-5.977,1.801-11.766,4.197-17.287,7.156l-20.36-20.358
		c-1.951-1.953-5.119-1.953-7.07,0l-31.67,31.67c-0.938,0.938-1.465,2.209-1.465,3.535s0.526,2.598,1.465,3.535l20.335,20.335
		c-2.973,5.53-5.38,11.328-7.188,17.312h-28.74c-2.762,0-5,2.238-5,5v44.787c0,2.762,2.238,5,5,5h28.74
		c1.809,5.983,4.216,11.781,7.188,17.312l-20.335,20.335c-0.938,0.938-1.465,2.209-1.465,3.535s0.526,2.598,1.465,3.535
		l31.67,31.671c0.938,0.938,2.209,1.465,3.535,1.465s2.598-0.526,3.535-1.465l20.36-20.359c5.521,2.959,11.311,5.355,17.287,7.156
		v28.797c0,2.762,2.238,5,5,5h44.787c2.762,0,5-2.238,5-5v-28.845c5.954-1.807,11.726-4.206,17.23-7.165l20.416,20.416
		c0.938,0.938,2.209,1.465,3.535,1.465s2.598-0.526,3.535-1.465l31.67-31.671c0.938-0.938,1.465-2.209,1.465-3.535
		s-0.526-2.598-1.465-3.535l-20.439-20.439c2.946-5.497,5.336-11.261,7.133-17.207h28.9c2.762,0,5-2.238,5-5v-44.787
		C386.41,238.626,384.172,236.388,381.41,236.388z M376.41,281.175h-27.692c-2.281,0-4.273,1.545-4.843,3.754
		c-1.961,7.622-4.996,14.945-9.021,21.767c-1.159,1.964-0.843,4.464,0.771,6.076l19.585,19.585l-24.599,24.6l-19.564-19.564
		c-1.612-1.614-4.115-1.93-6.081-0.769c-6.829,4.04-14.159,7.088-21.787,9.059c-2.207,0.57-3.749,2.562-3.749,4.841v27.634h-34.787
		v-27.593c0-2.283-1.547-4.276-3.758-4.844c-7.652-1.961-15.001-5.003-21.843-9.04c-1.966-1.157-4.464-0.84-6.076,0.771
		l-19.506,19.505l-24.599-24.6l19.484-19.483c1.614-1.615,1.931-4.118,0.768-6.083c-4.054-6.85-7.107-14.205-9.078-21.861
		c-0.568-2.209-2.561-3.754-4.842-3.754h-27.532v-34.787h27.532c2.281,0,4.273-1.545,4.842-3.754
		c1.971-7.656,5.024-15.012,9.078-21.861c1.163-1.965,0.847-4.468-0.768-6.082l-19.484-19.484l24.599-24.599l19.506,19.504
		c1.612,1.613,4.11,1.93,6.076,0.771c6.842-4.037,14.19-7.079,21.843-9.04c2.211-0.567,3.758-2.561,3.758-4.844v-27.592h34.787
		v27.634c0,2.28,1.542,4.271,3.75,4.841c7.627,1.97,14.957,5.017,21.786,9.058c1.966,1.161,4.469,0.846,6.081-0.769l19.564-19.563
		l24.599,24.599l-19.585,19.585c-1.613,1.612-1.93,4.112-0.771,6.076c4.024,6.821,7.06,14.145,9.021,21.767
		c0.569,2.209,2.562,3.754,4.843,3.754h27.692V281.175z"/>
	<path d="M309.616,263.771c0-26.287-21.386-47.673-47.672-47.673c-26.287,0-47.673,21.386-47.673,47.673
		c0,26.286,21.386,47.672,47.673,47.672C288.23,311.443,309.616,290.058,309.616,263.771z M261.944,301.443
		c-20.772,0-37.673-16.899-37.673-37.672s16.9-37.673,37.673-37.673s37.672,16.9,37.672,37.673S282.717,301.443,261.944,301.443z"/>
	<path d="M261.944,189.644c-40.252,0-73,32.748-73,73s32.748,73,73,73c2.762,0,5-2.238,5-5s-2.238-5-5-5c-34.738,0-63-28.262-63-63
		s28.262-63,63-63s63,28.262,63,63c0,22.778-12.359,43.854-32.254,55.002c-2.409,1.351-3.268,4.397-1.918,6.807
		s4.396,3.268,6.807,1.918c23.048-12.915,37.365-37.334,37.365-63.727C334.944,222.392,302.196,189.644,261.944,189.644z"/>
	<path d="M425.974,0H96.025C74.447,0,56.892,17.555,56.892,39.133v405.557c0,21.748,16.166,39.782,37.11,42.741
		c0.62,0.275,1.302,0.435,2.023,0.435c0.361,0,0.712-0.042,1.052-0.115c0.99,0.068,1.985,0.115,2.991,0.115h325.905
		c2.762,0,5-2.238,5-5V73.267V5C430.974,2.238,428.735,0,425.974,0z M420.974,10v58.267H96.025c-2.191,0-4.324-0.251-6.378-0.712
		V10.712C91.702,10.251,93.834,10,96.025,10H420.974z M79.647,15.054v48.159c-7.694-5.25-12.756-14.084-12.756-24.08
		C66.892,29.137,71.954,20.303,79.647,15.054z M101.025,477.865v-29.126c0-2.762-2.238-5-5-5s-5,2.238-5,5v27.863
		c-13.911-3.948-24.134-16.755-24.134-31.913V65.226c3.607,4.023,8.034,7.291,13.014,9.552c0.644,2.018,2.511,3.489,4.742,3.489
		c1.082,0,2.078-0.352,2.896-0.937c1.143,0.253,2.304,0.455,3.482,0.606v330.779c0,2.762,2.238,5,5,5s5-2.238,5-5V78.267h319.948
		v399.599H101.025z"/>
	<path d="M107.402,32.755h295.815c2.762,0,5-2.238,5-5s-2.238-5-5-5H107.402c-2.762,0-5,2.238-5,5S104.641,32.755,107.402,32.755z"
		/>
	<path d="M107.402,55.524h295.815c2.762,0,5-2.238,5-5s-2.238-5-5-5H107.402c-2.762,0-5,2.238-5,5S104.641,55.524,107.402,55.524z"
		/>
</g>
<g>
</g>
<g>
</g>
<g>
</g>
<g>
</g>
<g>
</g>
<g>
</g>
<g>
</g>
<g>
</g>
<g>
</g>
<g>
</g>
<g>
</g>
<g>
</g>
<g>
</g>
<g>
</g>
<g>
</g>
</svg>
