<?xml version="1.0" encoding="iso-8859-1"?>
<!-- Generator: Adobe Illustrator 18.1.1, SVG Export Plug-In . SVG Version: 6.00 Build 0)  -->
<svg version="1.1" id="Capa_1" xmlns="http://www.w3.org/2000/svg" xmlns:xlink="http://www.w3.org/1999/xlink" x="0px" y="0px"
	 viewBox="0 0 26 26" style="enable-background:new 0 0 26 26;" xml:space="preserve" fill="rgba(0,0,0,1)">
<g>
	<g>
		<path style="fill:#030104;" d="M17.921,17.796c0.073-0.176,0.032-0.381-0.103-0.516l-4.465-5.016
			c-0.184-0.184-0.484-0.184-0.668,0L8.181,17.28c-0.091,0.09-0.139,0.211-0.139,0.334c0,0.061,0.012,0.123,0.036,0.182
			c0.074,0.176,0.246,0.281,0.438,0.281h2.473c0,4.186-0.719,6.462-5.488,7.846c7.986,0,9.551-4.619,9.551-7.846h2.434
			C17.676,18.077,17.848,17.972,17.921,17.796z"/>
	</g>
	<path style="fill:#030104;" d="M23,0.077H3c-1.656,0-3,1.343-3,3v16c0,1.656,1.344,3,3,3h5v-2H3c-0.551,0-1-0.449-1-1v-12h22v12
		c0,0.551-0.449,1-1,1h-6v2h6c1.656,0,3-1.344,3-3v-16C26,1.42,24.656,0.077,23,0.077z M4.078,4.436
		c0,0.397-0.321,0.719-0.719,0.719H2.641c-0.397,0-0.719-0.321-0.719-0.719V3.718c0-0.397,0.321-0.719,0.719-0.719H3.36
		c0.397,0,0.719,0.321,0.719,0.719L4.078,4.436L4.078,4.436z M7.078,4.436c0,0.397-0.321,0.719-0.719,0.719H5.641
		c-0.397,0-0.719-0.321-0.719-0.719V3.718c0-0.397,0.321-0.719,0.719-0.719H6.36c0.397,0,0.719,0.321,0.719,0.719L7.078,4.436
		L7.078,4.436z M24,5.077H8v-2h16V5.077z"/>
</g>
<g>
</g>
<g>
</g>
<g>
</g>
<g>
</g>
<g>
</g>
<g>
</g>
<g>
</g>
<g>
</g>
<g>
</g>
<g>
</g>
<g>
</g>
<g>
</g>
<g>
</g>
<g>
</g>
<g>
</g>
</svg>
