<?xml version="1.0" encoding="iso-8859-1"?>
<!-- Generator: Adobe Illustrator 19.0.0, SVG Export Plug-In . SVG Version: 6.00 Build 0)  -->
<svg version="1.1" id="Layer_1" xmlns="http://www.w3.org/2000/svg" xmlns:xlink="http://www.w3.org/1999/xlink" x="0px" y="0px"
	 viewBox="0 0 512 512" style="enable-background:new 0 0 512 512;" xml:space="preserve">
<g>
	<g>
		<path d="M425.906,147.67c-32.381,0-58.726,26.345-58.726,58.726c0,32.381,26.345,58.726,58.726,58.726
			c32.381,0,58.726-26.345,58.726-58.726C484.633,174.015,458.288,147.67,425.906,147.67z"/>
	</g>
</g>
<g>
	<g>
		<path d="M86.094,147.67c-32.381,0-58.726,26.345-58.726,58.726c0,32.381,26.345,58.726,58.726,58.726
			c32.381,0,58.726-26.345,58.726-58.726C144.82,174.015,118.475,147.67,86.094,147.67z"/>
	</g>
</g>
<g>
	<g>
		<path d="M44.749,273.105C20.074,273.105,0,293.179,0,317.854v69.282c0,9.446,7.658,17.105,17.105,17.105h86.664v-87.332
			c0-15.596,3.961-30.595,11.155-43.804H44.749z"/>
	</g>
</g>
<g>
	<g>
		<path d="M467.251,273.105h-70.174c7.193,13.209,11.155,28.208,11.155,43.804v87.332h86.664c9.446,0,17.105-7.658,17.105-17.105
			v-69.282C512,293.179,491.926,273.105,467.251,273.105z"/>
	</g>
</g>
<g>
	<g>
		<path d="M256.57,76.971c-42.756,0-77.541,34.785-77.541,77.541s34.785,77.541,77.541,77.541c42.756,0,77.541-34.785,77.541-77.541
			S299.326,76.971,256.57,76.971z"/>
	</g>
</g>
<g>
	<g>
		<path d="M288.763,259.421h-65.527c-4.697,0-7.379,5.362-4.562,9.12l32.763,43.724c2.281,3.044,6.845,3.044,9.126,0l32.763-43.724
			C296.142,264.783,293.46,259.421,288.763,259.421z"/>
	</g>
</g>
<g>
	<g>
		<path d="M343.835,266.338c-2.493-1.351-5.602-0.677-7.303,1.592l-66.844,89.205c-6.844,9.133-20.547,9.113-27.377,0
			l-66.844-89.205c-1.7-2.269-4.809-2.942-7.303-1.592c-17.96,9.733-30.188,28.747-30.188,50.571v101.016
			c0,9.446,7.658,17.105,17.105,17.105h201.835c9.446,0,17.105-7.658,17.105-17.105V316.909
			C374.022,295.085,361.795,276.071,343.835,266.338z"/>
	</g>
</g>
<g>
</g>
<g>
</g>
<g>
</g>
<g>
</g>
<g>
</g>
<g>
</g>
<g>
</g>
<g>
</g>
<g>
</g>
<g>
</g>
<g>
</g>
<g>
</g>
<g>
</g>
<g>
</g>
<g>
</g>
</svg>
